<svg width="24" height="24" viewBox="0 0 24 24" fill="none" xmlns="http://www.w3.org/2000/svg">
<path d="M19.7072 17.293C19.3167 16.9025 18.6835 16.9025 18.293 17.293C17.9024 17.6835 17.9024 18.3167 18.293 18.7072L19.7072 17.293ZM22.2928 22.7071C22.6834 23.0977 23.3165 23.0977 23.7071 22.7071C24.0976 22.3166 24.0976 21.6835 23.7071 21.2929L22.2928 22.7071ZM9.37423 5.04924C9.91971 4.96285 10.2919 4.4506 10.2055 3.90512C10.1191 3.35963 9.60684 2.98747 9.06136 3.07387L9.37423 5.04924ZM4.07384 8.06139C3.98744 8.60687 4.3596 9.11911 4.90509 9.20551C5.45057 9.29191 5.96282 8.91974 6.04921 8.37426L4.07384 8.06139ZM18.293 18.7072L22.2928 22.7071L23.7071 21.2929L19.7072 17.293L18.293 18.7072ZM11 18C6.58172 18 3 14.4183 3 10H1C1 15.5228 5.47715 20 11 20V18ZM19 10C19 14.4183 15.4183 18 11 18V20C16.5228 20 21 15.5228 21 10H19ZM11 2C15.4183 2 19 5.58172 19 10H21C21 4.47715 16.5228 0 11 0V2ZM11 0C5.47715 0 1 4.47715 1 10H3C3 5.58172 6.58172 2 11 2V0ZM9.06136 3.07387C6.494 3.48049 4.48046 5.49403 4.07384 8.06139L6.04921 8.37426C6.3203 6.66269 7.66266 5.32033 9.37423 5.04924L9.06136 3.07387Z" fill="#FFFFFF"/>
</svg>
